# xmcd CD database file
#
# Track frame offsets:
#	150
#	17347
#	32859
#	48495
#	62575
#	80587
#	95200
#	111296
#	125952
#	140877
#	157682
#	174460
#	188329
#	206106
#	223650
#	240181
#	260491
#	274871
#	293745
#	309351
#	325527
#	337313
#
# Disc length: 4673 seconds
#
# Revision: 1
# Processed by: cddbd v1.5.2PL0 Copyright (c) Steve Scherf et al.
# Submitted via: CDex 1.51
#
DISCID=45123f16
DTITLE=Bruno e Marrone - Agora ao vivo
DYEAR=2014
DGENRE=Country
TTITLE0=Ausência
TTITLE1=Deixa acontecer
TTITLE2=Vou te amarrar na minha cama
TTITLE3=Apenas mais uma de amor
TTITLE4=Agora
TTITLE5=Você me vira a cabeça
TTITLE6=Mudei demais
TTITLE7=Garçom
TTITLE8=Não vou chorar
TTITLE9=Tiro e queda
TTITLE10=Oeano
TTITLE11=Primeiros erros
TTITLE12=A casa ao lado
TTITLE13=Parabéns
TTITLE14=Alma gêmea
TTITLE15=Força estranha
TTITLE16=Eu sei
TTITLE17=Frente a frente
TTITLE18=Quando a chuva passar
TTITLE19=Ainda gosto de você
TTITLE20=Stop que ela é top
TTITLE21=Dormi na praça
EXTD=YEAR: 2014
EXTT0=
EXTT1=
EXTT2=
EXTT3=
EXTT4=
EXTT5=
EXTT6=
EXTT7=
EXTT8=
EXTT9=
EXTT10=
EXTT11=
EXTT12=
EXTT13=
EXTT14=
EXTT15=
EXTT16=
EXTT17=
EXTT18=
EXTT19=
EXTT20=
EXTT21=
PLAYORDER=
